<svg width="24" height="24" viewBox="0 0 24 24" fill="none" xmlns="http://www.w3.org/2000/svg">
<path d="M2.12029 12.524L2.15699 12.5895C2.21569 12.6987 2.2744 12.7788 2.34045 12.8443L8.21116 18.667C8.6588 19.111 9.44401 19.111 9.89899 18.667C10.1265 18.4414 10.2512 18.1502 10.2512 17.83C10.2512 17.5097 10.1265 17.2186 9.89899 16.993L6.53067 13.6522C6.44995 13.5721 6.42793 13.4557 6.47196 13.3538C6.51599 13.2519 6.61139 13.1864 6.7288 13.1864H20.8038C21.4643 13.1864 22 12.6551 22 12C22 11.3449 21.4643 10.8136 20.8038 10.8136H6.7288C6.61873 10.8136 6.51599 10.7481 6.47196 10.6462C6.42793 10.5443 6.44995 10.4279 6.53067 10.3478L9.89899 7.00702C10.1265 6.78139 10.2512 6.49025 10.2512 6.17C10.2512 5.84975 10.1265 5.55862 9.89899 5.33299C9.45135 4.889 8.66614 4.889 8.21116 5.33299L2.34045 11.1557L2.09094 11.0465L2.29641 11.2285L2.24505 11.294C2.17166 11.3886 2.12029 11.4687 2.09094 11.5487C2.09094 11.556 2.0836 11.5633 2.07626 11.5706C2.04691 11.6361 2.02489 11.738 2.01022 11.8544L2.00288 11.9272C1.99554 12.0437 2.00288 12.1456 2.01756 12.2329C2.03957 12.3275 2.07626 12.4221 2.12029 12.524Z" fill="black"/>
</svg>
