<?xml version="1.0" standalone="no"?>
<!DOCTYPE svg PUBLIC "-//W3C//DTD SVG 20010904//EN"
 "http://www.w3.org/TR/2001/REC-SVG-20010904/DTD/svg10.dtd">
<svg version="1.0" xmlns="http://www.w3.org/2000/svg"
 width="1339.000000pt" height="1339.000000pt" viewBox="0 0 1339.000000 1339.000000"
 preserveAspectRatio="xMidYMid meet">
<metadata>
Created by potrace 1.14, written by Peter Selinger 2001-2017
</metadata>
<g transform="translate(0.000000,1339.000000) scale(0.100000,-0.100000)"
fill="#000000" stroke="none">
<path d="M6440 11369 c-360 -23 -481 -32 -650 -50 -885 -93 -1642 -266 -2389
-544 -312 -116 -766 -331 -781 -369 -36 -99 -47 -806 -16 -1141 55 -605 169
-1138 373 -1745 59 -176 164 -449 217 -565 18 -38 46 -99 61 -135 33 -74 253
-514 287 -575 104 -183 259 -435 351 -575 163 -245 475 -664 570 -765 11 -11
46 -54 80 -95 85 -105 187 -220 287 -325 48 -49 113 -119 146 -154 99 -107
509 -495 629 -596 63 -52 119 -101 127 -108 85 -82 556 -451 780 -611 l137
-97 48 32 c456 311 1029 788 1470 1225 323 320 482 496 794 879 204 251 480
650 656 950 226 384 352 632 482 940 40 94 76 179 81 190 57 124 179 474 244
700 69 236 162 635 196 835 6 36 17 103 25 150 23 136 54 430 66 630 19 302 0
882 -31 957 -6 15 -69 51 -212 121 -297 145 -487 224 -788 326 -859 290 -1673
443 -2685 506 -340 21 -360 22 -555 9z m188 -352 c-23 -18 -53 -48 -65 -66
-30 -44 -30 -113 -2 -280 11 -68 19 -133 17 -144 -2 -15 -16 -23 -58 -34 -30
-7 -89 -30 -130 -50 -100 -48 -220 -168 -269 -267 -43 -87 -71 -179 -71 -232
l0 -41 -87 -33 c-137 -51 -243 -107 -519 -272 -73 -43 -137 -78 -143 -78 -21
0 -95 42 -151 85 -79 61 -204 195 -289 310 -135 183 -209 245 -290 245 -78 0
-118 -70 -104 -185 7 -63 36 -96 193 -213 222 -167 314 -260 387 -392 50 -89
50 -87 -18 -181 -80 -110 -211 -329 -253 -421 -75 -166 -126 -347 -156 -548
-14 -96 -25 -139 -37 -151 -10 -10 -54 -25 -98 -34 -119 -26 -310 -22 -536 9
-194 26 -239 26 -300 -5 -59 -29 -89 -73 -89 -128 0 -40 5 -52 33 -78 68 -65
135 -80 258 -59 165 29 293 38 438 34 131 -5 283 -28 303 -47 4 -3 12 -46 18
-96 45 -366 190 -723 415 -1019 33 -43 64 -85 70 -92 6 -9 -2 -29 -29 -68 -21
-31 -42 -56 -46 -56 -19 0 -149 272 -199 415 -17 50 -39 123 -49 163 -10 40
-23 74 -27 75 -14 3 -80 -88 -159 -220 -182 -304 -307 -672 -332 -981 -4 -45
-10 -85 -15 -87 -12 -8 -208 295 -324 500 -231 409 -372 706 -507 1070 -32 88
-63 169 -68 180 -18 43 -80 237 -114 355 -165 589 -246 1148 -246 1717 0 247
12 481 29 547 8 34 62 65 321 183 470 215 929 363 1545 496 544 118 1218 202
1663 206 l134 1 -44 -33z m450 18 c317 -22 670 -64 967 -115 133 -23 283 -52
310 -60 17 -5 75 -18 130 -29 109 -22 439 -105 576 -145 206 -59 555 -181 664
-230 17 -8 95 -42 175 -77 80 -34 199 -89 265 -123 139 -71 126 -47 146 -274
15 -181 6 -711 -15 -912 -29 -270 -57 -456 -101 -669 -45 -217 -58 -270 -144
-566 -37 -131 -163 -489 -228 -650 -92 -228 -315 -680 -458 -927 -70 -122
-285 -452 -290 -446 -2 2 0 35 5 73 36 280 -24 604 -165 885 -70 141 -198 322
-214 304 -4 -5 -25 -56 -47 -114 -62 -167 -227 -491 -280 -549 -7 -7 -29 19
-68 80 l-35 57 51 63 c131 162 288 453 353 654 40 123 81 313 91 422 4 39 10
76 14 82 8 14 283 41 420 41 59 0 160 -9 230 -20 69 -12 150 -21 180 -21 160
-1 253 123 168 225 -57 69 -115 79 -301 50 -120 -19 -279 -22 -508 -10 l-165
8 -38 156 c-109 446 -154 556 -392 958 -46 78 -84 146 -84 152 0 20 207 288
256 331 27 24 69 55 94 69 108 62 245 185 273 245 36 75 11 158 -56 190 -46
22 -82 21 -134 -4 -54 -26 -111 -89 -255 -282 -130 -173 -163 -204 -310 -294
l-102 -63 -30 25 c-190 151 -516 333 -667 370 -23 6 -28 13 -33 57 -20 148
-105 312 -209 403 -63 55 -183 119 -262 140 -32 8 -60 17 -63 19 -2 3 5 52 17
110 28 140 29 286 2 330 -20 32 -54 65 -87 84 -28 16 83 15 354 -3z m-515
-922 c-3 -43 -7 -79 -8 -80 -5 -8 -168 -43 -173 -38 -7 6 19 54 57 103 19 26
111 91 128 92 2 0 0 -35 -4 -77z m288 57 c53 -27 110 -86 137 -140 12 -24 20
-45 19 -46 -1 -1 -40 3 -87 10 l-85 12 -11 49 c-17 77 -25 135 -19 135 3 0 24
-9 46 -20z m-538 -814 c26 -18 60 -39 76 -46 l29 -11 -5 -112 c-2 -62 -6 -154
-9 -204 l-6 -93 -271 0 -272 0 -26 43 c-15 23 -43 74 -63 113 l-35 72 97 65
c117 78 239 141 347 178 44 16 82 28 85 29 3 0 26 -15 53 -34z m874 0 c131
-45 396 -195 410 -234 8 -18 -62 -172 -95 -210 -32 -37 -17 -36 -308 -34
l-231 2 -7 193 c-4 107 -4 200 -1 208 6 14 132 96 151 98 6 1 42 -10 81 -23z
m-1822 -856 l57 -90 197 -2 c241 -2 238 -2 245 -9 7 -6 -61 -183 -98 -257 -40
-78 -72 -110 -129 -127 -79 -23 -164 -19 -264 14 -49 15 -115 34 -149 41 l-60
12 12 81 c14 97 37 188 69 277 29 82 56 150 60 150 1 0 28 -40 60 -90z m2718
-10 c49 -124 109 -371 94 -386 -8 -8 -177 -51 -266 -68 -109 -21 -166 -20
-218 3 -49 23 -60 42 -109 184 -20 56 -44 116 -55 133 l-19 31 51 7 c28 4 117
6 197 6 81 -1 153 -1 159 0 7 0 38 39 69 86 31 48 59 83 64 78 4 -5 19 -38 33
-74z m-1718 -487 c-4 -219 -10 -454 -14 -522 l-6 -124 -62 50 c-115 92 -198
218 -228 344 -17 73 -19 242 -5 309 24 106 86 222 163 304 32 34 38 36 97 36
l63 0 -8 -397z m781 376 c29 -24 101 -123 128 -177 86 -170 86 -404 0 -574
-15 -29 -47 -79 -73 -111 -48 -63 -167 -164 -179 -153 -8 9 -27 998 -19 1019
5 13 18 16 67 13 33 -2 67 -10 76 -17z m904 -591 c69 -23 126 -42 128 -44 7
-5 -30 -194 -54 -274 -42 -140 -217 -460 -252 -460 -21 0 -154 70 -218 116
-76 54 -161 144 -170 179 -11 44 2 109 30 152 16 23 51 104 80 180 50 132 54
139 94 161 94 53 181 50 362 -10z m-2354 -13 c31 -13 41 -27 88 -127 75 -159
116 -271 116 -315 0 -88 -95 -204 -215 -262 -38 -18 -96 -49 -128 -68 l-58
-35 -22 28 c-156 196 -267 446 -301 680 l-6 42 103 36 c56 19 113 37 127 40
50 9 260 -4 296 -19z m516 -679 c51 -19 101 -37 112 -42 18 -7 18 -18 12 -213
-3 -113 -9 -248 -12 -298 l-6 -93 -27 6 c-67 16 -184 59 -266 100 -89 43 -238
135 -249 152 -5 9 40 121 76 187 28 53 229 235 259 235 5 0 50 -15 101 -34z
m1143 9 c82 -39 124 -89 197 -235 l66 -130 -64 -46 c-142 -101 -307 -183 -451
-224 l-61 -17 -6 41 c-3 23 -6 155 -8 295 l-2 253 26 14 c41 22 200 74 226 74
13 0 47 -11 77 -25z m-1928 -859 c128 -97 384 -236 533 -291 41 -15 120 -40
175 -55 120 -33 118 -28 45 -176 -40 -81 -62 -113 -113 -160 -130 -122 -303
-170 -462 -129 -169 44 -398 223 -548 428 -48 65 -107 162 -107 175 0 3 72 2
160 -1 88 -3 160 -1 160 3 0 5 -28 45 -61 90 -34 45 -59 83 -57 86 3 2 41 31
84 64 l79 59 25 -23 c14 -13 53 -44 87 -70z m2719 28 c32 -25 61 -50 63 -56 4
-13 -40 -59 -108 -111 l-53 -41 28 -8 c16 -4 94 -19 174 -34 80 -14 148 -29
153 -33 9 -9 -60 -124 -135 -223 -120 -156 -249 -253 -412 -308 -298 -100
-547 -43 -679 158 -47 71 -93 178 -99 226 l-3 30 120 27 c224 51 391 127 755
343 69 41 128 75 131 75 3 1 32 -20 65 -45z m-3706 -468 c0 -71 80 -142 150
-132 l35 5 42 -82 c108 -210 315 -461 513 -620 222 -178 542 -351 820 -442
244 -80 532 -344 651 -599 17 -36 35 -66 39 -66 5 0 23 25 40 55 73 127 188
266 307 370 154 135 295 216 454 260 378 106 755 335 962 585 117 141 219 321
267 470 l21 66 35 -4 c19 -2 48 1 64 8 34 14 90 73 90 95 0 8 2 15 5 15 11 0
95 -45 95 -51 0 -9 -100 -146 -199 -274 -47 -61 -99 -128 -116 -150 -59 -79
-230 -279 -380 -445 -152 -168 -520 -530 -676 -665 -58 -50 -194 -170 -199
-175 -14 -14 -128 -107 -225 -184 -60 -47 -146 -115 -190 -150 -44 -35 -151
-113 -237 -175 l-157 -111 -88 61 c-443 310 -893 689 -1293 1089 -294 293
-399 407 -612 666 -178 215 -369 472 -372 498 -1 13 128 114 147 115 4 1 7
-14 7 -33z"/>
<path d="M2725 2624 c-80 -41 -120 -117 -119 -224 1 -92 25 -138 132 -254 106
-113 124 -153 101 -221 -9 -24 -25 -45 -41 -55 -25 -14 -32 -13 -75 3 -96 37
-93 39 -93 -40 l0 -69 45 -22 c56 -27 142 -29 192 -5 90 42 140 141 130 255
-7 80 -37 135 -121 226 -109 116 -116 128 -116 182 0 88 62 125 141 84 48 -25
59 -14 59 60 l0 64 -40 16 c-52 21 -156 21 -195 0z"/>
<path d="M7385 2626 c-74 -33 -118 -115 -118 -221 0 -98 22 -142 131 -258 105
-112 124 -153 101 -222 -9 -27 -24 -44 -43 -54 -26 -12 -34 -11 -80 8 -83 34
-86 32 -86 -48 l0 -69 43 -21 c58 -28 153 -29 206 -1 85 43 126 129 119 247
-5 91 -31 138 -139 257 -62 69 -90 107 -95 132 -18 97 52 152 137 108 49 -25
59 -14 59 61 0 66 0 66 -35 81 -43 18 -160 18 -200 0z"/>
<path d="M8152 2619 c-52 -26 -84 -72 -109 -154 -26 -86 -26 -459 0 -555 35
-130 106 -190 223 -190 78 0 123 19 167 70 55 64 69 128 74 339 6 215 -5 310
-47 396 -42 86 -80 109 -184 113 -67 3 -88 -1 -124 -19z m166 -152 c36 -76 41
-469 7 -555 -25 -61 -76 -71 -109 -20 -46 71 -46 515 0 586 22 34 84 28 102
-11z"/>
<path d="M1395 2618 c-3 -7 -4 -209 -3 -448 l3 -435 75 0 75 0 3 193 2 192 69
0 c99 0 101 2 101 70 0 68 -2 70 -101 70 l-69 0 0 120 0 119 93 3 92 3 0 60 0
60 -168 3 c-128 2 -169 0 -172 -10z"/>
<path d="M1828 2213 c-2 -230 -2 -433 0 -451 l3 -33 72 3 72 3 0 445 0 445
-72 3 -73 3 -2 -418z"/>
<path d="M2115 2618 c-3 -7 -4 -209 -3 -448 l3 -435 72 -3 73 -3 2 168 3 168
34 -90 c19 -49 47 -125 63 -167 l30 -78 68 0 c38 0 72 5 75 10 4 6 -28 100
-69 210 l-76 200 44 43 c51 49 66 92 66 192 0 123 -34 189 -115 226 -49 23
-262 28 -270 7z m190 -124 c27 -11 45 -60 45 -123 0 -75 -14 -107 -53 -121
-16 -5 -32 -10 -33 -10 -2 0 -4 59 -4 130 0 136 2 140 45 124z"/>
<path d="M3036 2614 c-8 -20 -8 -78 0 -98 5 -12 21 -16 70 -16 l64 0 2 -382 3
-383 70 0 70 0 3 382 2 382 63 3 62 3 0 60 0 60 -201 3 c-177 2 -202 0 -208
-14z"/>
<path d="M3534 2616 c-3 -7 -4 -35 -2 -62 l3 -49 68 -3 67 -3 0 -384 c0 -212
3 -385 8 -386 56 -5 103 -4 121 2 21 8 21 10 21 388 l0 380 63 3 62 3 0 60 0
60 -203 3 c-166 2 -203 0 -208 -12z"/>
<path d="M4017 2624 c-4 -4 -7 -205 -7 -446 0 -425 1 -439 19 -446 17 -6 188
-8 299 -3 l33 1 -3 63 -3 62 -92 3 -93 3 0 129 0 130 69 0 c99 0 101 2 101 70
0 68 -2 70 -101 70 l-69 0 0 120 0 119 93 3 92 3 0 60 0 60 -166 3 c-91 1
-168 -1 -172 -4z"/>
<path d="M4586 2613 c-10 -34 -178 -808 -183 -845 l-6 -38 76 0 75 0 7 38 c3
20 11 58 17 85 l10 47 68 0 68 0 7 -37 c3 -21 11 -59 17 -85 l10 -48 74 0 c64
0 74 2 74 18 0 9 -36 186 -81 392 -44 206 -85 401 -91 433 l-12 57 -62 0 c-51
0 -64 -3 -68 -17z m82 -440 c8 -43 16 -95 19 -115 l6 -38 -46 0 -45 0 14 73
c8 39 17 91 21 115 3 23 9 42 12 42 4 0 12 -35 19 -77z"/>
<path d="M5006 2618 c-2 -7 -16 -166 -31 -353 -14 -187 -30 -380 -35 -430 -4
-49 -6 -93 -3 -97 2 -5 35 -8 73 -8 57 0 70 3 74 18 3 9 8 100 12 202 4 101
10 176 14 165 4 -11 24 -101 45 -200 21 -99 41 -182 45 -185 5 -3 31 -3 58 -2
l51 4 9 46 c6 26 22 113 37 195 16 81 29 146 31 144 2 -1 8 -89 15 -195 11
-162 15 -192 28 -193 63 -5 115 -3 126 6 9 8 8 50 -6 200 -10 105 -25 271 -34
370 -9 99 -19 212 -23 250 l-7 70 -70 0 -69 0 -43 -215 c-23 -118 -43 -225
-43 -237 -1 -64 -20 0 -65 215 l-51 237 -67 3 c-48 2 -68 -1 -71 -10z"/>
<path d="M5748 2624 c-5 -4 -8 -204 -8 -445 0 -495 -6 -459 80 -459 81 0 80
-3 80 205 0 102 1 185 3 185 41 1 129 25 157 44 61 40 84 101 85 221 0 124
-21 179 -86 222 -40 27 -49 28 -173 31 -72 2 -134 0 -138 -4z m199 -139 c29
-20 45 -99 34 -161 -9 -49 -31 -74 -63 -74 -16 0 -18 11 -18 125 0 133 3 141
47 110z"/>
<path d="M6237 2623 c-4 -3 -7 -205 -7 -449 l0 -442 28 -6 c43 -8 94 -6 114 5
17 9 18 27 18 219 l0 210 65 0 65 0 0 -214 c0 -242 -6 -226 86 -226 79 0 75
-29 72 465 l-3 440 -75 0 -75 0 -3 -167 -2 -168 -65 0 -65 0 0 154 c0 85 -3
161 -6 170 -5 12 -21 16 -73 16 -37 0 -71 -3 -74 -7z"/>
<path d="M6738 2619 c-2 -7 36 -120 84 -252 l88 -241 0 -192 c0 -219 -2 -214
84 -214 80 0 76 -10 76 200 l0 187 76 247 c42 136 73 254 70 262 -4 10 -24 14
-79 14 l-73 0 -34 -142 c-18 -79 -36 -146 -39 -150 -4 -5 -27 60 -51 142 l-45
150 -77 0 c-48 0 -78 -4 -80 -11z"/>
<path d="M7757 2624 c-4 -4 -7 -204 -7 -445 0 -494 -7 -456 80 -456 87 0 81
-39 78 460 l-3 442 -70 3 c-39 1 -74 0 -78 -4z"/>
<path d="M8564 2616 c-3 -7 -4 -35 -2 -62 l3 -49 63 -3 62 -3 0 -379 c0 -427
-6 -397 79 -398 87 -1 81 -30 81 398 l0 379 63 3 62 3 0 60 0 60 -203 3 c-166
2 -203 0 -208 -12z"/>
<path d="M9037 2624 c-4 -4 -7 -204 -7 -445 0 -423 1 -439 19 -449 22 -11 83
-13 119 -4 22 6 22 7 22 220 l0 214 65 0 65 0 0 -210 c0 -192 1 -210 18 -219
20 -11 71 -13 115 -4 l27 5 -2 446 -3 447 -69 3 c-49 2 -72 -1 -77 -10 -5 -7
-9 -84 -9 -170 l0 -158 -65 0 -65 0 -2 168 -3 167 -70 3 c-39 1 -74 0 -78 -4z"/>
<path d="M9617 2624 c-4 -4 -7 -206 -7 -450 0 -394 2 -443 16 -448 9 -3 80 -6
158 -6 173 0 178 3 174 80 l-3 55 -92 3 -93 3 0 129 0 130 73 0 c43 0 78 5 85
12 7 7 12 33 12 58 0 25 -5 51 -12 58 -7 7 -42 12 -85 12 l-73 0 0 120 0 119
93 3 92 3 0 60 0 60 -166 3 c-91 1 -168 -1 -172 -4z"/>
<path d="M10067 2623 c-4 -3 -7 -203 -7 -444 0 -494 -7 -456 79 -457 81 -1 81
-2 81 171 l1 152 54 -145 c31 -80 59 -152 64 -160 5 -9 26 -16 56 -18 64 -4
95 4 95 26 0 9 -33 104 -74 211 l-74 194 32 21 c91 61 113 269 40 379 -40 60
-87 77 -225 77 -64 0 -119 -3 -122 -7z m202 -142 c56 -56 32 -231 -31 -231
-16 0 -18 10 -18 125 0 104 2 125 15 125 8 0 24 -9 34 -19z"/>
<path d="M10705 2618 c-4 -12 -48 -208 -151 -686 -19 -90 -38 -170 -40 -177
-3 -7 4 -18 15 -24 22 -12 110 -15 127 -3 6 4 18 43 26 87 l14 80 70 3 70 3
13 -80 c7 -44 20 -86 27 -92 15 -12 128 -9 141 4 6 7 -24 154 -147 722 l-36
170 -62 3 c-44 2 -64 -1 -67 -10z m100 -555 l6 -43 -47 0 c-43 0 -46 2 -40 23
3 12 13 69 23 126 l18 103 17 -83 c9 -46 19 -103 23 -126z"/>
<path d="M11088 2624 c-5 -4 -8 -204 -8 -445 0 -495 -6 -459 80 -459 81 0 80
-3 80 205 0 102 1 185 3 185 1 0 29 4 61 10 78 12 128 46 157 107 21 41 24 63
24 148 0 125 -21 179 -86 222 -40 27 -49 28 -173 31 -72 2 -134 0 -138 -4z
m206 -147 c42 -42 42 -183 0 -214 -10 -7 -26 -13 -36 -13 -16 0 -18 11 -18
125 0 106 2 125 15 125 9 0 26 -10 39 -23z"/>
<path d="M11510 2612 c0 -10 41 -129 90 -264 l90 -246 0 -185 c0 -208 -5 -197
82 -197 71 0 68 -8 68 197 l0 185 46 152 c25 83 59 193 75 244 43 136 44 132
-49 132 l-78 0 -34 -142 c-18 -79 -36 -146 -39 -150 -3 -4 -26 60 -51 143
l-44 149 -78 0 c-69 0 -78 -2 -78 -18z"/>
</g>
</svg>
